<mxfile host="app.diagrams.net" modified="2024-03-25T07:55:55.254Z" agent="Mozilla/5.0 (Windows NT 10.0; Win64; x64) AppleWebKit/537.36 (KHTML, like Gecko) Chrome/123.0.0.0 Safari/537.36" version="21.6.5" etag="RTvTLxgolTw8bxG2MZ06" type="github">
  <diagram name="페이지-1" id="cm7EwO-i7CsIZ_i3STuf">
    <mxGraphModel>
      <root>
        <mxCell id="0" />
        <mxCell id="1" parent="0" />
      </root>
    </mxGraphModel>
  </diagram>
</mxfile>
